<?xml version="1.0" encoding="utf-8"?>
<!-- Generator: Adobe Illustrator 21.1.0, SVG Export Plug-In . SVG Version: 6.00 Build 0)  -->
<svg version="1.0" id="Capa_1" xmlns="http://www.w3.org/2000/svg" xmlns:xlink="http://www.w3.org/1999/xlink" x="0px" y="0px"
	 viewBox="0 0 1400 980" enable-background="new 0 0 1400 980" xml:space="preserve">
<g>
	<path fill="#ACDCF6" d="M295.4,321.6c0.7-0.6,0.8-1.5,0.9-2.4c2.6-15.1,13.9-26.8,29-30.1c14.6-3.1,29.9,3.1,38.3,15.7
		c1.6,2.4,1.6,2.4,4.4,1.4c15.6-5.7,32.2,4.1,34.9,20.5c0.2,1.3,0.2,2.5,0.2,3.8c0,0.9-0.4,1.5-1.4,1.5c-1,0-1.5-0.6-1.5-1.5
		c0-1.8-0.3-3.5-0.7-5.2c-3.5-14.5-19.5-22-32.7-15.3c-0.1,0.1-0.3,0.1-0.4,0.2c-2.2,1-2.5,1-3.6-1.1c-1.3-2.2-2.7-4.4-4.4-6.3
		c-9.2-9.9-20.6-13.7-33.7-10.5c-13,3.3-21.3,11.9-24.8,24.8c-1.1,4-1.4,8-0.7,12.1c0.1,0.5,0.1,1,0.1,1.4c-0.1,0.7-0.6,1.1-1.3,1.2
		c-0.7,0.1-1.2-0.2-1.5-0.9c-0.3-0.8-0.3-1.7-0.9-2.4C295.4,326.4,295.4,324,295.4,321.6z"/>
	<path fill="#EDCFE4" d="M735.5,85.9c1.3,0.8,1.3,2,1.3,3.3c-0.1,4.5,0.3,8.9,1.5,13.3c0.5,1.7,1.1,3.3,2,4.9
		c2.5,4.6,6.7,6.7,11.7,7.2c0.7,0.1,1.4,0.1,2.2,0.1c0.9,0.1,1.3,0.6,1.3,1.4c0,0.8-0.5,1.3-1.3,1.4c-0.4,0-0.8,0-1.2,0
		c-7.5,0.4-12,3.8-14.3,11c-1.4,4.3-1.8,8.7-1.8,13.2c0,1,0,1.9-0.1,2.9c-0.1,0.8-0.6,1.4-1.4,1.4c-0.8,0-1.3-0.5-1.4-1.3
		c-0.1-0.9-0.1-1.9-0.1-2.9c0-4.2-0.4-8.3-1.5-12.3c-0.6-2-1.4-3.9-2.5-5.7c-2.7-4.1-6.7-5.8-11.3-6.2c-0.6,0-1.1-0.1-1.7-0.1
		c-1,0-1.6-0.5-1.6-1.4c0-0.9,0.6-1.4,1.5-1.5c1.3-0.1,2.5-0.2,3.8-0.4c4.6-0.7,7.9-3.2,10.1-7.3c2.1-4.1,2.8-8.5,3.1-12.9
		c0.1-1.7,0.1-3.5,0.1-5.3c0-1.1,0.2-2.2,1.3-2.9C735.2,85.9,735.4,85.9,735.5,85.9z M745,116.2c0.1-0.6-0.5-0.7-0.8-0.8
		c-3.9-2-6.3-5.3-7.8-9.3c-0.2-0.6-0.4-1.2-0.7-1.8c-0.1-0.3-0.2-0.7-0.5-0.7c-0.2,0-0.4,0.5-0.5,0.8c-0.1,0.3-0.2,0.6-0.3,0.9
		c-1.6,4.3-4,8-8.3,10.2c-1.2,0.6-0.6,1,0.1,1.4c2.8,1.5,5,3.7,6.5,6.5c0.8,1.4,1.4,2.9,1.9,4.4c0.1,0.4,0.2,0.8,0.6,0.9
		c0.1,0,0.4-0.5,0.5-0.8c1.5-4.8,4.1-8.8,8.7-11.2C744.7,116.6,744.9,116.4,745,116.2z"/>
	<path fill="#151D38" d="M655.8,623.3c0-21.4,0-42.9,0-64.3c0-0.5,0.1-1,0-1.4c-0.1-0.5,0.4-1.3-0.3-1.4c-0.6-0.1-0.7,0.7-1,1.2
		c-2.8,4.4-5.3,8.9-7.8,13.5c-0.6,1-0.6,1.8,0,2.9c1.3,2.2,2.6,4.4,3.7,6.7c1.4,2.8,0.6,6.1-1.7,8c-2.4,2-5.9,2.1-8.5,0.3
		c-1.2-0.8-1.8-2-2.5-3.2c-0.8-1.3-0.8-1.3-1.8-0.2c-2.9,3-5.7,6-8.6,9.1c-1.6,1.7-3.3,2.6-5.7,2.5c-2.6-0.1-4.6-1.4-5.8-3.7
		c-1.2-2.4-1-4.8,0.6-7c0.7-1,1.7-1.9,2.6-2.8c0.2-0.2,0.6-0.4,0.3-0.8c-0.1-0.1-0.4,0.1-0.6,0.2c-2.9,1.3-5.8,2.7-8.7,4
		c-1.5,0.7-3.1,1.3-4.8,1c-4.5-0.8-7.1-5.5-5.1-9.7c0.2-0.4,0.5-0.8,0.7-1.2c0.3-0.5,0-0.7-0.5-0.7c-0.5,0-1,0.1-1.4,0
		c-3.5-0.1-6.2-2.6-6.6-6c-0.4-3.3,1.7-6.3,5-7.2c1.5-0.4,3-0.6,4.5-0.8c1.8-0.3,1.8-0.3,0.7-1.8c-2.9-3.9-1.2-9.3,3.3-10.8
		c1.2-0.4,2.4-0.3,3.6-0.2c5.3,0.6,10.7,1,16,1.8c2.1,0.3,3.2-0.4,4.3-2.3c7.2-12.8,15.6-24.9,25.1-36.3c1-1.1,1.3-2.2,1.3-3.7
		c-0.1-3,0-6.1,0-9.1c0.1-15.4,12.6-27.8,28.1-27.9c5.5,0,11,0,16.6,0c2,0,2,0,2-2c0.2-6.5-0.3-12.8-3.2-18.7
		c-1.9-3.8-4.2-7.4-6.7-10.8c-4.4-5.8-9.1-11.3-13.7-17c-8.4-10.6-15.5-21.9-20.3-34.6c-3.1-8.3-5.1-16.8-6.4-25.5
		c-0.3-2-0.3-2-2.5-2.1c-13.2-0.6-20.9-14.9-14.1-26.3c3.3-5.5,8.3-8.2,14.7-8.4c0.4,0,0.8,0,1.2,0c2.2,0.2,1.9,0,2.4-1.8
		c2.1-7.9,5.1-15.5,9.3-22.5c14.5-24.1,35.5-39.2,63.3-43.8c29.1-4.8,54.8,3.1,76.7,22.9c12.9,11.7,21.4,26.3,26,43.2
		c0.1,0.2,0.1,0.5,0.1,0.7c0.6,2.2,0.5,1.8,2.4,1.7c8.5-0.5,15.7,4.8,17.8,13c2.8,10.8-5.2,21.4-16.3,21.7c-1.9,0-2,0-2.3,2.1
		c-1,7.1-2.5,14-4.7,20.8c-4.5,13.9-11.8,26.2-20.7,37.6c-5,6.4-10.4,12.5-15.3,19.1c-3.2,4.3-6,8.8-7.8,14
		c-1.3,3.8-1.7,7.8-1.6,11.8c0,1.1,0.1,2.2,0,3.4c-0.1,1.3,0.5,1.6,1.7,1.6c5.8,0,11.5,0,17.3,0c10.7-0.1,19,4.3,24.9,13.2
		c1.1,1.7,1.4,1.7,2.9,0.4c1.7-1.4,2.6-3.2,3.1-5.2c3.6-13.2,7.2-26.4,10.8-39.5c4-14.6,8-29.3,12-43.9c0.3-1.2,0.8-2.3,0.7-3.5
		c-0.1-1.9-0.9-3.6-2.4-4.8c-0.9-0.8-1.9-1.4-2.8-2.2c-4.3-3.7-5.5-9.8-2.8-14.8c2.6-4.8,8.1-6.9,13.6-5.3c1.7,0.5,1.7,0.5,2.3-1.1
		c2.3-6.9,4.6-13.8,6.9-20.7c0.2-0.7,0.4-1.4,0.8-2c1.2-2.2,3.7-3.3,6.1-2.6c2.4,0.6,3.9,2.6,3.9,5.1c0,1-0.2,1.9-0.5,2.8
		c-1.3,4-2.7,8-4,12.1c-0.5,1.4-0.4,1.5,1.1,1.8c1.5,0.3,2.7,1,3.5,2.2c0.4,0.6,0.9,0.7,1.6,0.6c4-0.7,5.9,0.4,7,4.2
		c0.2,0.8,0.5,1.2,1.4,1.2c4,0.2,5.8,4.3,4.7,7.5c-2.5,6.8-4.8,13.7-7.3,20.6c-1.3,3.5-3.8,6.1-7,7.9c-0.8,0.4-1.9,0.7-0.1,1.4
		c1.1,0.5,0.9,1.5,0.7,2.5c-1.4,4.9-2.7,9.9-4.1,14.8c-5.9,21.5-11.7,43-17.7,64.5c-4,14.3-13.5,23.3-27.7,27.2
		c-2.4,0.6-2.3,0.5-2.3,3c0,17.4,0,34.9,0,52.3c0,38.8,0,77.6,0,116.4c0,5-0.6,4.2-4.3,4.2c-13.6,0-27.2,0-40.8,0c-0.5,0-1,0-1.4,0
		c-1.8,0-1.8,0-1.8,1.9c0,5,0,9.9,0,14.9c0,1-0.1,2,1.4,1.9c0.6,0,0.8,0.4,0.8,1c0,0.7,0,1.4,0,2.2c0,20.6,0,41.1-0.1,61.7
		c0,2.3,0.7,3.5,2.8,4.6c7.7,4.1,15.3,8.4,22.9,12.7c6.2,3.5,8.1,11.4,4.1,16.9c-2.8,3.9-7.5,5.4-12.4,3.9
		c-10.2-3.1-20.3-6.3-30.4-9.5c-5.8-1.8-11.6-3.6-17.4-5.5c-1.8-0.6-1.8-0.6-1.8-2.5c0-27.8,0-55.7,0-83.5c0-0.9-0.2-2,1.2-2.1
		c0.6,0,0.6-0.7,0.6-1.1c0-5.4,0-10.9,0-16.3c0-0.9-0.4-1.1-1.2-1.1c-1.9,0-3.8,0-5.8,0c-6,0-12,0-18,0c-1.8,0-1.8,0.1-1.2,1.7
		c3.2,8.6,6.4,17.2,9.6,25.9c2.2,5.8,4.4,11.7,6.5,17.5c1,2.6,1.3,2.2-1.6,3.2c-14.3,5.3-28.6,10.6-42.9,15.9
		c-4.6,1.7-9.3,3.4-13.9,5.2c-3,1.1-5.9,1.2-8.9-0.1c-4-1.9-6.1-5.1-6.3-9.4c-0.2-4.7,1.6-8.5,5.7-10.8c3.9-2.2,7.9-4.3,11.8-6.4
		c5.9-3.2,11.8-6.3,17.8-9.5c2-1,2-1.1,1.2-3.2c-3.4-9.2-6.8-18.4-10.3-27.6c-1-2.6-0.4-2.2-3.1-2.3c-10.7,0-21.4,0-32.2,0
		c-0.5,0-1,0-1.4,0c-2-0.1-2.3-0.3-2.3-2.4c0-0.6,0-1.1,0-1.7C655.8,666.1,655.8,644.7,655.8,623.3z"/>
	<path fill="#FAE0D6" d="M831.5,358.5c8.9,0.5,16.1-7,15.4-15.6c-0.8-9.2-9.6-14.7-17.4-12.8c-1.7,0.4-2.1,0.1-2.6-1.6
		c-0.6-2-1.1-4-1.6-6c-0.3-1.2-0.9-1.6-2.1-1.8c-23.5-4.1-42.5-15.7-57.1-34.5c-0.2-0.3-0.5-0.6-0.7-1c-0.5-0.7-1-0.7-1.6-0.2
		c-0.3,0.3-0.6,0.5-1,0.7c-17.4,12.5-36.9,18.3-58.4,17.3c-10.7-0.5-21-3-30.9-7.2c-2.2-0.9-2.2-0.9-3.6,1.1
		c-4.5,6.4-8.1,13.2-10.8,20.5c-1.3,3.5-2.3,7-3.1,10.6c-0.4,1.9-0.8,2-2.7,1.8c-1.1-0.1-2.2-0.4-3.3-0.4c-7.1,0.2-13.3,5.7-14,12.5
		c-0.7,7.6,3.8,14.1,11,15.8c1.6,0.4,3.2,0.5,4.8,0.3c2.5-0.2,2.7,0,3,2.5c0.2,1.3,0.3,2.7,0.5,4c1.7,11.4,5,22.3,10.1,32.6
		c4.9,9.9,11.2,18.8,18.2,27.3c4.9,6,10,11.9,14.3,18.3c4,5.9,6.9,12.3,7.3,19.5c0.1,1.2,0.8,1.4,1.7,1.7c4,1.2,8,2.2,12.1,3
		c11.8,2.3,23.7,2.7,35.6,1.4c7.2-0.8,14.4-2.3,21.4-4.3c1.3-0.4,1.8-0.9,1.9-2.3c0.2-4.1,1.5-8,3.2-11.7c2.5-5.5,6.1-10.3,9.8-15
		c5-6.3,10.3-12.4,15.1-18.9c8.4-11.4,14.8-23.7,18.6-37.3c1.6-5.9,2.8-12,3.6-18.1c0.3-2.1,0.5-2.2,2.6-2.2
		C831,358.5,831.4,358.5,831.5,358.5z"/>
	<path fill="#FFFFFF" d="M741.2,561.2c11.1,0,22.2,0,33.4,0c3.2,0,3,0.4,3-2.9c0-17.7,0-35.4,0-53c0-0.8,0-1.6,0-2.4
		c0.2-1.6,0.9-2,2.5-1.6c0.5,0.1,1.1,0.4,1.6,0.6c9.7,3.4,19.5,6.8,29.2,10.2c3.2,1.1,6.5,1.8,9.8,1.9c16.5,0.7,31-10,35.4-26
		c3.8-13.7,7.5-27.4,11.3-41.1c3.2-11.7,6.5-23.4,9.6-35.1c0.7-2.6,1-2.2-1.7-3c-5.7-1.7-11.5-3.4-17.2-5.1c-3.6-1-2.9-1.4-3.9,2.2
		c-6.9,25.2-13.8,50.4-20.7,75.6c-2,7.3-8.5,10.7-15.7,8.1c-12.7-4.5-25.5-8.9-38.2-13.4c-1.3-0.4-2.4-0.6-3.7-0.2
		c-12.9,3.8-26.1,5.4-39.5,4.8c-10.3-0.4-20.3-2.1-30.2-5.1c-1.6-0.5-2.8-0.3-4.3,0.5c-11.4,6.2-21.5,14.1-30.8,23.1
		c-12.1,11.7-22.5,24.9-31.7,39.1c-2,3-3.8,6.1-5.7,9.2c-0.6,0.9-0.5,1.4,0.4,1.9c1.3,0.8,2.6,1.6,3.8,2.4c3.4,2.2,6.7,4.3,10.1,6.5
		c1.5,1,1.5,0.9,2.5-0.6c0.3-0.4,0.5-0.8,0.8-1.2c5.1-8.2,10.6-16,16.8-23.4c10.7-12.9,22.9-24.1,37.1-33c0.5-0.3,1.1-0.7,1.7-1
		c0.8-0.4,1.4,0,1.8,0.7c0.4,0.6,0.3,1.3-0.2,1.7c-0.4,0.4-0.9,0.7-1.4,0.9c-1.6,0.7-2,1.9-2,3.6c0.1,17.6,0,35.2,0,52.8
		c0,0.5,0,1,0,1.4c0,0.8,0.4,1.1,1.2,1.1c0.6,0,1.3,0,1.9,0C719.2,561.2,730.2,561.2,741.2,561.2z"/>
	<path fill="#EDCFE4" d="M780.6,596.7c0,29.6,0,59.2,0,88.8c0,0.7,0,1.4,0,2.2c0,0.8,0.4,1.2,1.2,1.1c0.4,0,0.8,0,1.2,0
		c13.5,0,27,0,40.5,0c2.3,0,2.3,0,2.4-2.4c0-0.6,0-1.3,0-1.9c0-53.4,0-106.9,0-160.3c0-1.4,0-2.9,0-4.3c0-3.6,0.3-3-2.9-2.9
		c-4.8,0.1-9.4-0.8-13.9-2.3c-8.6-3-17.2-6-25.8-9c-3-1-2.8-1.1-2.8,2C780.6,537.3,780.6,567,780.6,596.7z"/>
	<path fill="#FFFFFF" d="M777.5,645.2c0-20.9,0-41.8,0-62.6c0-2.4,0-2.4-2.3-2.4c-23.2,0-46.4,0-69.6,0c-1.2,0-2.4,0.2-3.5,0.7
		c-9.5,4.2-19,8.4-28.5,12.5c-6,2.5-8.5,9-6.4,14.6c6.5,17.3,12.8,34.6,19.2,51.9c0.7,1.9,0.7,1.9,2.7,1.2c5.4-2,10.8-4,16.2-6
		c2.5-0.9,2.5-0.9,1.6-3.4c-4.5-12.4-9.1-24.7-13.6-37.1c-1.2-3.3-0.3-5.5,2.8-6.9c11.3-5,22.5-9.9,33.8-14.8
		c1.8-0.8,3.8-1.3,5.8-1.6c3.8-0.5,7.7-0.3,11.5-0.3c1,0,2.1,0.2,3,0.6c3.3,1.1,5.2,4.5,5.2,7.8c-0.1,35.7,0,71.3,0,107
		c0,0.6,0,1.3,0,1.9c0,1.9,0,2,2,2c5.8,0,11.5,0,17.3,0c3,0,2.9,0.5,2.9-3C777.5,686.6,777.5,665.9,777.5,645.2z"/>
	<path fill="#EDCFE4" d="M658.7,619.5c0,22,0,44,0,66c0,0.7,0,1.4,0,2.2c0,0.8,0.4,1.1,1.2,1.1c0.5,0,1,0,1.4,0c9.7,0,19.4,0,29,0
		c0.2,0,0.5,0,0.7,0c1.7-0.1,1.7-0.1,1.1-1.8c-0.1-0.3-0.2-0.6-0.4-0.9c-2.5-6.8-5.1-13.6-7.6-20.5c-0.2-0.7-0.8-1.5-0.6-2
		c0.6-1.5-0.3-2.6-0.7-3.8c-6.2-16.8-12.3-33.6-18.6-50.4c-2.9-7.6,0.4-15.8,8.1-19c9.1-3.8,18.1-8,27.3-11.8
		c1.7-0.7,2.3-1.6,2.3-3.5c-0.1-22.1,0-44.1-0.1-66.2c0-0.9,0.5-2.2-0.4-2.6c-0.7-0.3-1.5,0.7-2.2,1.2c-15.9,11.5-28.9,25.8-40,41.9
		c-0.8,1.1-0.8,2.2-0.8,3.4C658.7,575,658.7,597.2,658.7,619.5z"/>
	<path fill="#EDCFE4" d="M752.3,643.2c0-14.5,0-28.9,0-43.4c0-3.8-1.8-5.6-5.5-5.7c-2.8-0.1-5.6,0-8.4,0.1c-3,0-5.8,0.9-8.6,2.1
		c-10.5,4.6-21.1,9.2-31.6,13.8c-0.4,0.2-0.9,0.4-1.3,0.6c-1.1,0.6-1.5,1.4-1,2.6c0.2,0.5,0.4,1.1,0.6,1.6
		c5.2,13.3,9.5,26.9,15.2,40c4.5,10.5,8,21.4,12,32.1c0.7,1.9,0.7,1.9,2.7,1.9c7.9,0,15.8,0,23.7,0c2.1,0,2.1,0,2.1-2.1
		c0-0.4,0-0.8,0-1.2C752.3,671.4,752.3,657.3,752.3,643.2z"/>
	<path fill="#FAE0D6" d="M607.2,552.1c-1-0.1-2.7,1.1-3.1,2.8c-0.5,1.9,0.4,3.9,2.2,4.5c1.8,0.6,3.5,1.4,5.6,0.8
		c1.8-0.5,3.6-0.7,5.4-1c1.5-0.2,2.4,0.2,2.5,1.2c0.1,1.2-0.8,1.6-1.9,1.7c-0.3,0-0.6,0.2-0.9,0.2c-3.1,0.5-6.3,1.1-9.4,1.6
		c-3.1,0.6-6.3,1-9.4,1.7c-2.1,0.5-3.1,2.1-2.9,4.1c0.3,2,1.9,3.4,4,3.3c0.9,0,1.7-0.3,2.6-0.4c6.4-0.7,12.5-2.4,18.2-5.4
		c0.6-0.3,1.3-0.6,2-0.8c0.7-0.2,1.3,0,1.6,0.7c0.3,0.7,0.2,1.4-0.5,1.9c-0.5,0.4-1.1,0.6-1.7,0.9c-5.2,2.3-10.3,4.7-15.5,7
		c-0.7,0.3-1.3,0.6-1.9,0.9c-1.6,1-2.1,2.9-1.4,4.6c0.7,1.7,2.6,2.6,4.4,2.1c0.5-0.1,1-0.4,1.5-0.6c2.7-1.2,5.4-2.5,8-3.8
		c3-1.4,6.1-2.8,9.1-4.3c1-0.5,1.9-0.7,2.5,0.4c0.6,1,0,1.6-0.7,2.3c-0.7,0.7-1.4,1.5-2.1,2.3c-2,2.1-4.1,4.3-6.1,6.5
		c-1.7,1.9-1.7,3.8-0.1,5.3c1.6,1.6,3.8,1.5,5.5-0.2c0.3-0.3,0.7-0.7,1-1c3-3.2,6-6.4,9.1-9.6c2.5-2.6,2.9-2.6,4.7,0.7
		c0.5,0.9,0.9,1.9,1.5,2.7c1.6,2.3,4.8,2.2,6.2-0.1c0.9-1.3,0.7-2.7,0-4.1c-1.3-2.4-2.6-4.8-3.9-7.1c-0.7-1.2-0.7-2.3,0-3.6
		c1.4-2.4,2.7-4.9,4.1-7.3c0.6-1,0.5-1.4-0.5-2.1c-4.7-3-9.5-6-14.1-9c-1-0.6-1.6-0.6-2,0.5c-0.7,1.7-1.9,2-3.7,1.7
		C620.8,553.4,614.4,552.8,607.2,552.1z"/>
	<path fill="#B2ACBF" d="M741.3,577.1c11,0,22.1,0,33.1,0c3.4,0,3.1,0.5,3.1-3c0-2.3,0-4.6,0-7c0-3.1,0.1-2.8-2.9-2.8
		c-22.1,0-44.3,0-66.4,0c-0.5,0-1,0-1.4,0c-1.1-0.1-1.6,0.3-1.6,1.5c0.1,3.3,0.1,6.6,0,9.8c0,1.2,0.5,1.6,1.6,1.5c0.6,0,1.1,0,1.7,0
		C719.4,577.1,730.3,577.1,741.3,577.1z"/>
	<path fill="#FAE0D6" d="M873.4,404.2c4.7-0.2,8.6-2.5,10.7-7.2c1.6-3.6,2.7-7.5,4.1-11.2c0.3-0.8,0.1-1.2-0.8-1.3
		c-1.5-0.1-2.7-0.8-3.7-2c-0.4-0.6-0.8-0.8-1.6-0.6c-2.4,0.5-4.5,0-6-2c-0.4-0.6-0.9-0.8-1.6-0.6c-2.8,0.9-5,0-6.5-2.5
		c-0.6-1-0.9-0.5-1.3,0.1c-1.2,1.6-2.7,2.1-4.6,1.9c-2-0.2-3.3-1.6-4.6-2.9c-0.5-0.5-0.4-1.2,0-1.8c0.5-0.6,1.2-0.8,1.9-0.3
		c0.7,0.5,1.4,1.1,2.1,1.6c0.9,0.7,1.8,0.6,2.6-0.2c0.7-0.8,0.7-1.7-0.3-2.5c-1.3-1.1-2.5-2.2-4-3c-3.9-2.1-8.8-0.7-11.1,3.1
		c-2.3,3.9-1.4,8.9,2.6,11.7c5,3.5,6.8,7.8,4.8,13.6c-0.5,1.6-0.4,1.7,1.2,2.2c4.2,1.3,8.4,2.4,12.6,3.7
		C871,404.1,872.1,404.2,873.4,404.2z"/>
	<path fill="#EDCFE4" d="M689.3,474.7c-1.8,0-3.7,0-5.5,0c-11.1,0.1-21.1,7.8-24.1,18.5c-1.2,4.2-0.9,8.5-0.9,12.8
		c0,0.3-0.1,0.7,0.4,0.7c0.2,0,0.4-0.2,0.6-0.3c0.6-0.6,1.1-1.2,1.6-1.8c5.6-6.1,11.6-11.9,18.1-17.1c5.1-4.2,10.4-8,16-11.4
		c0.6-0.3,1.7-0.5,1.5-1.3c-0.1-0.5-1.3-0.2-2-0.2C693,474.7,691.2,474.7,689.3,474.7z"/>
	<path fill="#FFFFFF" d="M679.7,758.9c1.1,0,2.3-0.4,3.5-0.9c17.3-6.4,34.7-12.9,52.1-19.3c4-1.5,4-1.5,2.5-5.5
		c-0.7-1.9-0.7-1.9-2.7-1.2c-19.4,7.2-38.7,14.3-58.1,21.5c-0.9,0.3-1.8,0.6-2.7,1c-1.4,0.6-1.5,0.8-0.3,1.9
		C675.4,758.1,677.3,759,679.7,758.9z"/>
	<path fill="#EDCFE4" d="M742.2,477.7c5.8,0.1,12.5-0.5,19.1-1.6c4.8-0.8,9.6-1.9,14.2-3.3c2.1-0.7,2.1-0.7,2.1-3c0-0.2,0-0.3,0-0.5
		c0-2.5,0-2.5-2.5-1.8c-9.8,2.8-19.8,4.4-30,4.7c-12.5,0.4-24.9-1.1-37-4.6c-3.1-0.9-2.9-1.1-2.9,2.3c0,2.3,0,2.3,2.1,3
		C718.5,476,729.8,477.8,742.2,477.7z"/>
	<path fill="#FFFFFF" d="M803.3,810.8c2,0.1,3.6-0.5,4.9-1.5c0.8-0.6,2-1.3,1.8-2.3c-0.1-0.8-1.5-0.8-2.3-1
		c-16.9-5.1-33.8-10.1-50.7-15.1c-3.9-1.2-3.6-1.7-3.6,2.8c0,1.9,0,1.9,1.8,2.5c15.2,4.8,30.5,9.5,45.7,14.3
		C801.8,810.7,802.7,810.8,803.3,810.8z"/>
	<path fill="#EDCFE4" d="M820.9,487.2c0.3,0,0.7,0,0.9-0.2c0.3-0.4-0.1-0.7-0.3-1c-0.3-0.4-0.5-0.8-0.8-1.2
		c-5.1-6.5-11.8-9.9-20-10.1c-3.8-0.1-7.7,0-11.5,0c-0.6,0-1.3,0-1.9,0c-0.2,0-0.6,0-0.6,0.1c-0.1,0.5,0.4,0.4,0.6,0.6
		c0.1,0.1,0.3,0.1,0.4,0.2c10.6,3.7,21.2,7.4,31.8,11.1C819.9,486.9,820.4,487.1,820.9,487.2z"/>
	<path fill="#FAE0D6" d="M876.6,345.2c0-1.2-0.5-2.1-1.4-2.5c-1-0.4-2.2-0.1-2.8,0.8c-0.4,0.7-0.7,1.4-0.9,2.2
		c-2.3,6.9-4.5,13.8-6.8,20.6c-0.6,1.7-0.5,2.9,1.1,3.8c0.3,0.2,0.6,0.5,0.9,0.8c1.1,1.3,1.2,1.3,1.7-0.2c2.7-8.1,5.3-16.2,8-24.3
		C876.4,345.9,876.5,345.5,876.6,345.2z"/>
	<path fill="#FAE0D6" d="M877.6,367.1c0.1-1.3-0.7-2.4-1.8-2.7c-1.1-0.3-2.3,0.3-2.8,1.7c-0.9,2.3-1.6,4.7-2.3,7.1
		c-0.5,1.6,0.1,2.8,1.5,3.2c1.3,0.4,2.4-0.2,2.9-1.7c0.8-2.1,1.4-4.2,2.1-6.4C877.4,367.9,877.5,367.4,877.6,367.1z"/>
	<path fill="#FAE0D6" d="M885.4,369.7c0.1-1.2-0.6-2.2-1.6-2.5c-1.2-0.4-2.4,0.1-2.9,1.4c-0.9,2.4-1.7,4.8-2.4,7.2
		c-0.5,1.6,0.2,2.9,1.5,3.3c1.2,0.4,2.4-0.2,3-1.7c0.8-2.1,1.4-4.2,2.1-6.3C885.2,370.5,885.3,370,885.4,369.7z"/>
	<path fill="#FAE0D6" d="M885.7,378.9c0,1.3,0.7,2.4,1.8,2.7c1.2,0.2,2.1-0.2,2.6-1.3c0.7-1.6,1.2-3.3,1.7-4.9
		c0.3-1.1-0.5-2.2-1.6-2.6c-1.2-0.4-2.1,0-2.7,1C886.6,375.3,886.3,377.2,885.7,378.9z"/>
	<path fill="#151D38" d="M455.9,324.1c-22.3,0.6-36.8,15.5-41.2,31c-1,3.4-1.6,6.9-1.7,10.4c0,0.5-0.1,1-0.1,1.4
		c0,0.9-0.4,1.6-1.4,1.6c-1.1,0-1.5-0.7-1.5-1.7c0-3.6,0.4-7.2,1.3-10.7c2.5-9.9,7.6-18,15.5-24.5c1.6-1.4,1.6-1.4,0.9-3.3
		c-10.3-28.2-3.5-58.8,17.7-79.7c11.7-11.4,25.6-18.3,41.8-20.7c8.1-1.2,16.3-1,24.3,0.5c0.5,0.1,1.1,0.2,1.6,0.4
		c1.1,0.6,1.1,1.9,0.1,2.5c-0.5,0.3-1.2,0.5-1.8,0.8c-16.4,7-27.1,19.1-31.1,36.5c-4.1,18.1,0.5,34.2,13.4,47.8
		c8,8.5,18,13.6,29.5,15.2c16.9,2.3,31.6-2.6,44-14.3c0.5-0.4,0.9-0.9,1.4-1.4c0.5-0.5,1.1-0.7,1.7-0.4c0.7,0.3,1,1,0.8,1.8
		c-0.2,1-0.4,2-0.7,3c-4.8,18.5-15.1,33.1-30.9,44c-1.9,1.3-1.9,1.3-0.5,3.2c3.3,4.4,5.4,9.2,5.8,14.7c0,0.2,0,0.5,0.1,0.7
		c0.2,1.7,0.2,1.8,2.1,1.2c2.9-0.9,5.8-1.1,8.7-0.3c7.7,2.1,12.3,9.6,10.6,17.4c-0.1,0.5-0.3,0.9-0.5,1.3c-0.4,0.7-1,0.8-1.7,0.6
		c-0.6-0.1-1-0.6-1-1.2c0-0.5,0.1-0.9,0.2-1.4c0.8-5.2-0.8-9.5-5.3-12.4c-4.3-2.8-8.8-2.5-13.1,0.3c-0.4,0.3-0.8,0.6-1.2,0.7
		c-1,0.3-1.8-0.2-1.9-1.2c-0.1-0.9,0-1.8,0-2.6c0.2-14.6-11.9-26.5-26.3-25.7c-4.8,0.2-9.2,1.8-13.2,4.5c-0.5,0.3-0.9,0.7-1.4,1
		c-1.4,0.8-2.3,0.4-2.6-1.2c-0.3-1.6-0.4-3.2-0.7-4.7c-3.5-18.2-17.9-32-36.2-34.6C459.8,324.3,457.7,324.3,455.9,324.1z"/>
	<path fill="#151D38" d="M1036,760.3c0-15-12.2-27-27.3-26.4c-5.1,0.2-9.7,1.8-13.9,4.7c-0.4,0.3-0.8,0.6-1.2,0.9
		c-1.6,1-2.6,0.5-2.8-1.3c-0.2-2-0.5-4-0.9-5.9c-4.3-19.6-21.1-33.9-41.1-34.9c-22.6-1.2-42.4,14.6-46.2,36.9
		c-0.4,2-0.7,4.1-0.6,6.2c0,0.6,0,1.1-0.1,1.7c-0.2,0.7-0.7,1-1.4,1c-0.7,0-1.3-0.4-1.3-1.1c-0.1-0.8-0.1-1.6-0.1-2.4
		c0.5-11,4.3-20.8,11.6-29c8.6-9.8,19.5-15.3,32.6-16.2c24.2-1.8,46,15.2,50.1,39.2c0,0.2,0.1,0.5,0.1,0.7c0.1,1,0.5,1.4,1.5,0.7
		c3.2-1.9,6.6-3.1,10.3-3.7c16.6-2.9,32.8,9.9,33.7,26.8c0,0.3,0,0.6,0,1c-0.1,1,0.4,1.1,1.2,0.8c1.4-0.6,2.9-0.9,4.4-1.1
		c10-1.1,18.3,7.6,16.8,17.5c-0.1,0.7-0.3,1.4-0.5,2.1c-0.3,0.7-1,1-1.8,0.8c-0.7-0.2-1-0.7-1-1.4c0-0.5,0.1-0.9,0.2-1.4
		c0.9-5.2-0.8-9.5-5.2-12.5c-4.3-2.9-8.8-2.9-13.3-0.3c-0.9,0.5-1.7,1.7-3,1.1c-1.4-0.7-0.6-2.1-0.7-3.3
		C1036,761,1036,760.6,1036,760.3z"/>
	<path fill="#151D38" d="M558.9,137.2c6.3,0,11.2,2,15.5,5.7c0.2,0.2,0.5,0.4,0.7,0.7c0.7,0.7,1,0.5,1.1-0.5
		c0.6-4.3,1.7-8.5,3.7-12.4c8-15.9,20.9-24.4,38.8-24.9c19.5-0.5,37.3,13,42.2,32.5c0.8,3.3,1.3,6.7,1.3,10.2c0,0.8-0.2,1.4-1,1.7
		c-0.6,0.2-1.1,0.1-1.5-0.4c-0.5-0.6-0.4-1.3-0.4-2.1c-0.1-3-0.5-5.9-1.3-8.8c-5-19.4-23.1-32.1-43.1-30.1
		c-17.6,1.7-32.5,15.7-35.4,33.2c-0.3,2.1-0.4,4.1-0.6,6.2c-0.1,0.8,0,1.6-1,2c-1.1,0.3-1.6-0.3-2.1-1.1c-2.3-3.7-5.6-6.4-9.7-7.9
		c-11.9-4.4-24.7,3.9-25.8,16.6c0,0.5,0,1-0.1,1.4c-0.1,0.9-0.6,1.5-1.6,1.4c-0.9-0.1-1.3-0.6-1.3-1.4c-0.1-2,0.2-4,0.7-5.9
		C540.8,143.3,550.3,136.9,558.9,137.2z"/>
	<path fill="#ACDCF6" d="M438.5,663.3c5.8,0,10.8,1.9,15,5.8c0.2,0.2,0.5,0.5,0.7,0.7c0.7,0.6,0.9,0.3,1-0.5
		c0.3-2.2,0.8-4.4,1.4-6.6c5.6-19.2,24.1-32.1,44-30.8c21.2,1.4,38,17.4,40.3,38.5c0.2,1.4,0.1,2.9,0.2,4.3c0,0.9-0.4,1.6-1.4,1.6
		c-1.1,0-1.5-0.6-1.6-1.7c-0.1-3.4-0.5-6.7-1.4-9.9c-5-19.1-23.3-31.8-42.9-29.7c-21.7,2.3-35.6,20.4-36,38.5c0,1.1,0.2,2.4-1.2,2.8
		c-1.3,0.4-1.7-0.8-2.3-1.7c-6.7-9.6-19.3-11.4-28.4-4c-4.1,3.4-6.2,8-6.8,13.3c-0.2,2.2-0.5,2.7-1.6,2.7c-1.1,0-1.5-0.9-1.4-3
		c0.4-9.3,7.6-17.8,17-20C435,663.4,436.8,663.2,438.5,663.3z"/>
	<path fill="#ACDCF6" d="M989.9,483.9c0.2-18.2,13.4-33.9,31.4-36.3c15.3-2.1,27.6,3.4,36.5,16.1c0.3,0.4,0.6,0.8,0.8,1.2
		c0.5,1.1,1.2,1.1,2.1,0.6c2.1-1,4.3-1.6,6.7-1.9c14.8-2.2,28.4,8.6,29.7,23.5c0.1,0.8,0,1.6,0,2.4c0,0.7-0.4,1.2-1.2,1.3
		c-0.8,0.1-1.4-0.3-1.6-1c-0.1-0.5-0.2-1.1-0.2-1.7c-0.5-11-9.3-20.3-20.2-21.6c-4.6-0.5-8.9,0.3-13,2.3c-0.1,0.1-0.3,0.1-0.4,0.2
		c-2.1,1-2.5,0.9-3.6-1.1c-2.3-4.2-5.3-7.8-9.1-10.7c-10.8-8-22.6-9.5-34.8-4c-12.2,5.6-18.7,15.5-19.9,28.9
		c-0.1,1.6-0.1,3.2,0.1,4.8c0.1,0.8,0.1,1.6,0.2,2.4c0,0.9-0.5,1.4-1.3,1.4c-0.8,0.1-1.4-0.3-1.6-1.2
		C990.1,487.7,989.9,485.8,989.9,483.9z"/>
	<path fill="#ACDCF6" d="M712.6,216.2c0-18.5,13.3-34.1,31.3-36.7c15.7-2.2,28,3.6,36.9,16.6c1.5,2.1,1.1,1.8,3.1,1
		c16.8-6.8,35.2,5.1,35.9,23.2c0,0.5,0.2,0.9-0.1,1.4c-0.3,0.6-0.8,1-1.5,1c-0.6,0-1.1-0.4-1.2-1c-0.2-0.6-0.2-1.3-0.3-1.9
		c-1.1-16.3-18.1-26.4-32.9-19.4c-3.1,1.5-3,1.6-4.9-1.6c-7.2-12.3-21-18.8-35.1-16.5c-13.8,2.3-24.8,13-27.6,26.9
		c-0.7,3.2-0.8,6.5-0.5,9.8c0.1,0.7,0.1,1.4,0.1,2.2c0,0.8-0.5,1.4-1.3,1.4c-0.8,0.1-1.4-0.4-1.5-1.2
		C712.7,219.6,712.4,217.7,712.6,216.2z"/>
	<path fill="#EDCFE4" d="M402.9,524.2c-0.1,1-0.7,1.4-1.6,1.4c-1.4,0.1-2.7,0.2-4,0.4c-5.2,0.8-9.2,3.5-11.7,8.2
		c-1.9,3.6-2.8,7.5-3.3,11.4c-0.4,3.3-0.6,6.5-0.6,9.8c0,1.8-0.5,2.6-1.4,2.6c-1,0-1.4-0.7-1.5-2.5c-0.2-5.1-0.3-10.2-1.6-15.2
		c-0.1-0.5-0.3-1.1-0.5-1.6c-2.6-8.5-7.7-12.5-16.6-13c-0.6,0-1.1,0-1.7-0.1c-0.6-0.1-0.9-0.6-1-1.2c-0.1-0.7,0.3-1.3,1-1.5
		c0.6-0.2,1.3-0.1,1.9-0.2c8.4-0.5,13.7-4.5,16.2-12.5c1.1-3.6,1.7-7.3,1.9-11.1c0.1-2.3,0.2-4.6,0.3-6.9c0-0.7,0.1-1.5,1-1.7
		c1-0.3,1.8,0.3,1.9,1.6c0.1,1.7,0,3.4,0.1,5c0.2,4.2,0.7,8.4,1.9,12.5c0.2,0.6,0.4,1.2,0.6,1.8c2.6,7,7.7,10.7,15.2,11.2
		c0.7,0,1.4,0,2.2,0.1C402.4,522.9,402.8,523.4,402.9,524.2z M380.2,509.2c-0.2,0-0.4,0.3-0.7,1.4c-1.7,5.7-4.7,10.3-10.1,13
		c-1.2,0.6-1.2,0.8,0.1,1.4c4.5,2.3,7.4,5.9,9.2,10.6c0.4,1.1,0.8,2.3,1.2,3.4c0.1,0.2,0.1,0.5,0.4,0.4c0.1,0,0.2-0.2,0.3-0.4
		c0.3-0.7,0.5-1.5,0.8-2.3c1.8-5.2,4.7-9.4,9.8-11.9c1.2-0.6,1.2-0.7-0.2-1.4c-4.7-2.4-7.6-6.3-9.4-11c-0.3-0.9-0.6-1.8-0.9-2.7
		C380.5,509.5,380.3,509.3,380.2,509.2z"/>
	<path fill="#151D38" d="M535.9,501.6c-1.1,0-1.6-0.6-1.6-1.5c-0.1-1.5-0.2-3-0.2-4.5c-0.1-3.6-0.6-7.2-1.5-10.6
		c-0.6-2-1.4-3.9-2.6-5.7c-2.6-3.8-6.3-5.6-10.7-6c-0.9-0.1-1.8,0-2.6-0.2c-0.8-0.1-1.3-0.7-1.2-1.5c0.1-0.7,0.5-1.1,1.3-1.2
		c1-0.1,1.9-0.2,2.9-0.3c5.8-0.5,9.8-3.6,12-8.9c1.5-3.6,2.1-7.4,2.4-11.2c0.2-2.1,0.2-4.1,0.3-6.2c0-1,0.2-1.8,1.3-1.9
		c0.9-0.1,1.6,0.7,1.6,2c0,3.3,0.1,6.6,0.6,9.8c0.4,2.9,1.1,5.7,2.3,8.3c2.3,4.9,6.1,7.6,11.5,8.2c1,0.1,1.9,0.2,2.9,0.3
		c0.8,0.1,1.4,0.5,1.5,1.3c0,1-0.6,1.4-1.5,1.5c-0.6,0.1-1.3,0.1-1.9,0.1c-6.2,0.4-10.5,3.4-12.8,9.2c-2,4.9-2.4,10.1-2.5,15.3
		c0,0.8,0,1.6-0.1,2.4C537,500.9,536.6,501.5,535.9,501.6z M545.5,471.7c0-0.4-0.4-0.5-0.6-0.6c-2.1-1.1-3.9-2.5-5.3-4.4
		c-1.5-2-2.6-4.2-3.3-6.6c-0.1-0.4-0.4-0.7-0.6-1c-0.2,0.3-0.5,0.7-0.6,1c-1.5,4.8-4.1,8.6-8.7,11c-0.8,0.4-0.7,0.8,0,1.1
		c1.7,0.9,3.2,2,4.5,3.5c1.9,2.1,3.2,4.6,4,7.3c0.1,0.4,0.4,1.2,0.6,1.2c0.5,0,0.5-0.7,0.7-1.1c1.6-4.7,4.1-8.6,8.7-10.9
		C545.2,472.1,545.3,471.9,545.5,471.7z"/>
	<path fill="#EDCFE4" d="M492.6,794.4c-0.2,0.9-0.8,1.4-1.7,1.4c-1.1,0-2.2,0.1-3.3,0.3c-5.4,0.8-8.7,4-10.6,8.9
		c-1.3,3.3-1.8,6.8-2,10.3c-0.1,1.9-0.2,3.8-0.3,5.7c0,1-0.2,1.8-1.3,1.9c-0.9,0.1-1.5-0.7-1.6-2c0-3.1-0.1-6.2-0.6-9.3
		c-0.3-2.2-0.8-4.4-1.6-6.5c-2.1-5.8-6.3-8.8-12.4-9.3c-0.6,0-1.3,0-1.9-0.1c-0.8-0.1-1.3-0.6-1.3-1.4c0-0.9,0.5-1.3,1.3-1.4
		c1.1-0.1,2.2-0.2,3.3-0.4c5.3-0.7,8.7-3.6,10.7-8.4c1.9-4.7,2.4-9.6,2.4-14.6c0-0.8,0-1.6,0-2.4c0.1-0.9,0.5-1.6,1.5-1.5
		c1,0,1.3,0.8,1.4,1.6c0.2,3.3,0.2,6.7,0.7,10c0.4,2.2,0.8,4.4,1.7,6.5c2,5,5.5,8.1,11,8.8c1.1,0.1,2.2,0.2,3.3,0.4
		C492.1,793.1,492.5,793.6,492.6,794.4z M473.2,806.2c0.2-0.3,0.3-0.5,0.4-0.8c1.5-4.5,3.9-8.2,8.2-10.5c0.8-0.4,0.5-0.8-0.1-1.1
		c-1.3-0.7-2.4-1.5-3.5-2.5c-2.2-2.1-3.5-4.7-4.5-7.5c-0.1-0.4-0.4-0.7-0.6-1c-0.2,0.3-0.5,0.6-0.6,1c-1.4,4.3-3.8,7.9-7.9,10.1
		c-1.3,0.7-0.4,1,0.2,1.4c3.8,2.1,6,5.4,7.5,9.3c0.2,0.4,0.3,0.9,0.5,1.3C472.9,805.9,473.1,806,473.2,806.2z"/>
	<path fill="#151D38" d="M1054.1,617c0.9,0.1,1.4,0.7,1.4,1.6c0,1.4,0.1,2.7,0.1,4.1c0.1,3.4,0.6,6.8,1.5,10.2
		c0.4,1.3,0.9,2.6,1.5,3.8c2.4,4.9,6.5,7.1,11.7,7.5c0.6,0,1.1,0,1.7,0.1c0.9,0.1,1.5,0.5,1.5,1.5c0,1-0.7,1.3-1.6,1.4
		c-1,0.1-2.1,0.2-3.1,0.3c-5.1,0.7-8.6,3.6-10.6,8.3c-1.7,4-2.2,8.3-2.4,12.6c-0.1,1.2-0.1,2.4-0.1,3.6c0,0.3,0,0.6,0,1
		c-0.1,0.9-0.6,1.5-1.6,1.5c-0.8,0-1.2-0.6-1.3-1.5c-0.1-2.2-0.2-4.5-0.3-6.7c-0.2-3-0.7-6-1.7-8.9c-2.1-6.3-6.5-9.7-13.1-10.1
		c-0.5,0-1,0-1.4-0.1c-0.8-0.1-1.4-0.5-1.4-1.3c0-1,0.6-1.4,1.5-1.5c0.5,0,1,0,1.4-0.1c6.4-0.4,10.7-3.6,12.9-9.7
		c1.6-4.6,1.9-9.4,2.1-14.2c0-0.7,0-1.4,0.1-2.1C1052.8,617.4,1053.4,617.1,1054.1,617z M1063.2,645.8c0-0.6-0.5-0.7-0.8-0.8
		c-3.7-2.1-6-5.2-7.4-9.1c-0.1-0.4-0.2-0.8-0.4-1.1c-0.1-0.3-0.4-0.5-0.6-0.8c-0.1,0.3-0.3,0.5-0.4,0.8c-1.5,4.4-3.9,8.1-8.1,10.3
		c-1,0.5-0.7,0.9,0.1,1.3c3.9,2.1,6.3,5.5,7.7,9.7c0.1,0.3,0.2,0.6,0.3,0.9c0.1,0.2,0.1,0.5,0.4,0.4c0.1,0,0.2-0.2,0.3-0.3
		c0.1-0.1,0.2-0.3,0.2-0.4c1.4-4.4,3.9-8,8.1-10.3C1062.9,646.1,1063,645.9,1063.2,645.8z"/>
	<path fill="#151D38" d="M965.7,288.5c1.2,0.2,1.3,1,1.3,2c0.1,2.1,0.2,4.1,0.3,6.2c0.2,2.8,0.6,5.6,1.5,8.2
		c1.9,6.3,5.9,10.1,12.7,10.6c0.8,0.1,1.6,0.1,2.4,0.2c0.7,0.1,1.1,0.6,1.1,1.3c0,0.7-0.4,1.2-1.1,1.4c-0.7,0.1-1.4,0.1-2.1,0.2
		c-5.9,0.4-10,3.3-12.3,8.8c-1.2,3.1-1.8,6.3-2.1,9.6c-0.2,2.1-0.2,4.1-0.3,6.2c0,0.3,0,0.6,0,1c-0.1,0.9-0.5,1.5-1.5,1.5
		c-0.9-0.1-1.3-0.6-1.3-1.4c-0.1-1.4-0.1-2.7-0.1-4.1c-0.1-3.8-0.6-7.5-1.7-11.1c-2.1-6.7-6.3-10-13.3-10.4c-0.6,0-1.1,0-1.7-0.2
		c-0.7-0.2-1.1-0.6-1.1-1.4c0-0.7,0.4-1.2,1.1-1.3c1-0.1,2.1-0.2,3.1-0.3c5.6-0.6,9.2-3.6,11.3-8.8c1.6-4,2.1-8.2,2.3-12.4
		c0.1-1.4,0.1-2.7,0.1-4.1C964.2,289.2,964.6,288.5,965.7,288.5z M974.8,317.1c-0.2-0.1-0.3-0.3-0.5-0.4c-1.1-0.6-2.2-1.3-3.1-2.2
		c-2.3-2.1-3.8-4.7-4.8-7.6c-0.2-0.5-0.1-1.3-0.7-1.3c-0.5,0-0.5,0.7-0.7,1.1c-1.5,4.2-3.8,7.7-7.9,9.8c-1,0.5-0.6,0.9,0.1,1.3
		c3.4,1.8,5.7,4.6,7.1,8.1c0.3,0.8,0.6,1.6,1,2.4c0.1,0.2,0.3,0.3,0.5,0.5c0.1-0.2,0.3-0.4,0.4-0.6c0.5-1.4,1.1-2.8,1.8-4.2
		c1.4-2.7,3.5-4.7,6.1-6.2C974.3,317.7,974.6,317.5,974.8,317.1z"/>
	<path fill="#151D38" d="M389.4,192.3c0,0.6-0.4,1.1-1,1.2c-0.7,0.1-1.4,0.2-2.1,0.3c-3.7,0.3-6.2,2.3-7.6,5.7
		c-1.2,3-1.5,6.2-1.6,9.4c0,0.7,0,1.4,0,2.2c-0.1,0.9-0.6,1.5-1.5,1.5c-0.8,0-1.2-0.6-1.3-1.5c-0.1-2.2-0.1-4.5-0.5-6.7
		c-0.3-2.1-0.8-4.1-1.8-5.9c-1.5-2.8-3.7-4.3-6.8-4.6c-0.8-0.1-1.6-0.2-2.4-0.3c-0.6-0.1-1-0.5-1-1.2c-0.1-0.7,0.3-1.3,1-1.5
		c0.6-0.2,1.3-0.2,1.9-0.2c3.9-0.3,6.5-2.3,7.9-5.9c1.1-2.8,1.4-5.7,1.6-8.7c0-0.9,0.1-1.8,0.1-2.6c0-0.8,0.4-1.4,1.3-1.5
		c1-0.1,1.5,0.5,1.5,1.4c0.1,2.2,0.1,4.3,0.4,6.5c0.2,1.8,0.6,3.5,1.3,5.1c1.4,3.5,4,5.5,7.8,5.7c0.6,0,1.3,0.1,1.9,0.2
		C389.1,191.1,389.4,191.6,389.4,192.3z M375.5,198.6c0.3,0,0.4-0.2,0.5-0.4c1-2.3,2.4-4.1,4.5-5.5c0.5-0.3,0.3-0.7-0.1-0.9
		c-2-1.3-3.4-3.2-4.3-5.3c-0.3-0.7-0.7-0.8-1.1,0c-1,2.1-2.3,4-4.3,5.3c-0.3,0.2-0.6,0.6-0.1,0.9c2.1,1.5,3.6,3.4,4.6,5.7
		C375.2,198.4,375.4,198.5,375.5,198.6z"/>
	<path fill="#EDCFE4" d="M961.4,539.6c0.8,0,1.1,0.6,1.2,1.4c0.1,1.9,0.3,3.8,0.4,5.7c0.2,2.1,0.6,4.1,1.4,6c1.5,3.4,4,5.3,7.7,5.6
		c0.4,0,0.8,0.1,1.2,0.1c1,0.1,1.8,0.4,1.7,1.5c0,1-0.7,1.3-1.6,1.4c-0.6,0.1-1.1,0.1-1.7,0.2c-3.7,0.4-6.1,2.4-7.5,5.9
		c-1.2,2.9-1.4,6-1.6,9.2c0,0.8-0.1,1.6-0.2,2.4c0,0.8-0.5,1.2-1.2,1.3c-0.8,0.1-1.4-0.4-1.5-1.2c-0.1-0.7-0.1-1.4-0.1-2.1
		c0-2.6-0.3-5.3-1-7.8c-1.4-4.9-3.9-7.1-8.9-7.6c-0.1,0-0.2,0-0.2,0c-1.7-0.2-2.3-0.6-2.2-1.6c0.2-1.4,1.3-1.4,2.4-1.5
		c5.1-0.5,7.7-2.7,9-7.8c0.7-2.6,1-5.2,1-7.8c0-0.7,0-1.4,0.1-2.1C960,540,960.5,539.5,961.4,539.6z M961.2,566.3
		c0.4,0,0.4-0.4,0.6-0.6c1-2.1,2.3-4,4.3-5.3c0.6-0.4,0.5-0.7,0-1.1c-2.1-1.4-3.4-3.3-4.4-5.5c-0.4-0.8-0.7-0.4-0.9,0.1
		c-1,2.2-2.4,4.1-4.4,5.5c-0.6,0.4-0.3,0.8,0.1,1.1c1.9,1.3,3.2,3,4.2,5.1C960.8,565.8,960.9,566.1,961.2,566.3z"/>
	<path fill="#151D38" d="M665,812.5c0,11,0,21.9,0,32.9c0,0.6,0,1.3-0.1,1.9c-0.1,0.7-0.6,1.1-1.3,1.2c-0.7,0-1.3-0.3-1.4-1
		c-0.1-0.5-0.1-1.1-0.1-1.7c0-22.2,0-44.4,0-66.7c0-0.5,0-1,0.1-1.4c0.1-0.8,0.7-1.3,1.5-1.3c0.8,0,1.3,0.5,1.4,1.4
		c0,0.6,0,1.3,0,1.9C665,790.6,665,801.5,665,812.5z"/>
	<path fill="#151D38" d="M807.6,862.6c0-9.5,0-19,0-28.5c0-0.7,0-1.5,0.1-2.1c0.2-0.8,0.8-1.2,1.6-1.1c0.8,0.1,1.1,0.6,1.2,1.3
		c0.1,0.6,0.1,1.1,0.1,1.7c0,19.1,0,38.2,0,57.3c0,0.6,0,1.1-0.1,1.7c-0.1,0.8-0.6,1.3-1.4,1.4c-0.8,0-1.4-0.5-1.5-1.3
		c-0.1-0.7-0.1-1.4-0.1-2.1C807.6,881.3,807.6,871.9,807.6,862.6z"/>
	<path fill="#151D38" d="M681.2,802.3c0,7.8,0,15.5,0,23.3c0,0.6,0,1.3-0.1,1.9c-0.1,0.7-0.7,1-1.4,1.1c-0.7,0-1.3-0.3-1.4-1
		c-0.1-0.6-0.1-1.3-0.1-1.9c0-15.4,0-30.9,0-46.3c0-0.6,0-1.3,0.1-1.9c0.1-0.7,0.6-1.1,1.4-1.1c0.7,0,1.3,0.4,1.4,1.1
		c0.2,0.7,0.1,1.4,0.1,2.1C681.2,787.1,681.2,794.7,681.2,802.3z"/>
	<path fill="#151D38" d="M695.7,808.5c0-3.7,0-7.3,0-11c0-0.6,0-1.1,0.1-1.7c0.1-0.6,0.6-0.9,1.2-0.9c0.6,0,1.1,0.2,1.4,0.8
		c0.3,0.6,0.2,1.2,0.2,1.9c0,7.4,0,14.9,0,22.3c0,1.8-0.4,2.5-1.4,2.6c-1.1,0.1-1.5-0.6-1.5-2.7
		C695.7,816.1,695.7,812.3,695.7,808.5z"/>
	<path fill="#151D38" d="M731.3,779.8c0,3.5,0,7,0,10.5c0,0.6,0,1.1,0,1.7c0,0.8-0.5,1.2-1.2,1.3c-0.8,0.1-1.4-0.4-1.6-1.1
		c-0.1-0.4-0.1-0.9-0.1-1.4c0-7.5,0-15,0-22.5c0-0.2,0-0.5,0-0.7c0.1-1.3,0.7-2,1.7-1.9c1.1,0.1,1.3,1,1.3,1.9
		C731.3,771.6,731.3,775.7,731.3,779.8z"/>
	<path fill="#151D38" d="M788.9,847c0,3.6,0,7.2,0,10.8c0,0.6,0,1.1,0,1.7c0,0.7-0.4,1.2-1.2,1.3c-0.8,0.1-1.4-0.3-1.6-1.1
		c-0.1-0.5-0.1-1.1-0.1-1.7c0-7.3,0-14.7,0-22c0-0.6-0.1-1.3,0.2-1.9c0.3-0.7,0.9-0.9,1.6-0.8c0.6,0.1,1,0.4,1.1,1.1
		c0.1,0.6,0.1,1.1,0.1,1.7C788.9,839.6,788.9,843.3,788.9,847z"/>
	<path fill="#151D38" d="M1012,375.6c0,3-2.5,5.4-5.5,5.5c-3.1,0-5.6-2.5-5.5-5.7c0-3.2,2.5-5.5,5.7-5.4
		C1009.8,370.1,1012.1,372.5,1012,375.6z M1009.1,375.4c-0.1-1.3-1.3-2.5-2.7-2.5c-1.5,0-2.7,1.4-2.5,2.8c0.1,1.4,1.4,2.5,2.8,2.4
		C1008.1,378,1009.2,376.7,1009.1,375.4z"/>
	<path fill="#151D38" d="M597.9,226.9c0,3.1-2.2,5.5-5.3,5.6c-3.2,0.1-5.7-2.3-5.8-5.4c0-3.1,2.5-5.6,5.6-5.6
		C595.5,221.5,597.9,223.8,597.9,226.9z M595,227.1c0-1.5-1-2.6-2.5-2.7c-1.4,0-2.7,1.1-2.7,2.5c0,1.4,1.1,2.6,2.5,2.6
		C593.8,229.6,594.9,228.6,595,227.1z"/>
	<path fill="#151D38" d="M1104.6,574.7c0.4,3.2-2.8,5.6-5.3,5.5c-3.2,0-5.7-2.4-5.7-5.6c0-3.1,2.5-5.6,5.7-5.5
		C1102.5,569.2,1104.6,571.4,1104.6,574.7z M1101.8,574.6c0-1.4-1.2-2.6-2.6-2.6c-1.3,0-2.6,1.3-2.6,2.6c0,1.3,1.3,2.6,2.7,2.6
		C1100.6,577.3,1101.8,576.1,1101.8,574.6z"/>
	<path fill="#151D38" d="M487.2,538.2c0,3.1-2.5,5.5-5.8,5.4c-3.1-0.1-5.4-2.5-5.3-5.6c0.1-3,2.5-5.5,5.5-5.5
		C484.8,532.5,487.3,535,487.2,538.2z M481.7,540.6c1.4,0,2.6-1.1,2.6-2.5c0-1.4-1.1-2.6-2.6-2.6c-1.4,0-2.6,1.2-2.6,2.6
		C479.1,539.5,480.2,540.6,481.7,540.6z"/>
	<path fill="#151D38" d="M879.1,182.9c-3.1,0-5.3-2.4-5.3-5.5c0-3.2,2.4-5.6,5.6-5.5c3,0.1,5.4,2.5,5.4,5.5
		C884.7,180.6,882.3,183,879.1,182.9z M881.9,177.4c0-1.3-1.3-2.6-2.6-2.6c-1.5,0-2.7,1.3-2.6,2.8c0.1,1.4,1.3,2.5,2.7,2.5
		C880.6,180,881.9,178.7,881.9,177.4z"/>
	<path fill="#151D38" d="M553.3,767.1c0,3.2-2.5,5.6-5.6,5.5c-3-0.1-5.4-2.6-5.4-5.6c0-3.2,2.5-5.5,5.7-5.5
		C551.1,761.7,553.3,764,553.3,767.1z M547.7,764.5c-1.4,0-2.6,1.3-2.5,2.7c0.1,1.4,1.4,2.6,2.7,2.5c1.4-0.1,2.5-1.3,2.5-2.7
		C550.3,765.5,549.2,764.5,547.7,764.5z"/>
	<path fill="#151D38" d="M447,443.2c0,3-2.4,5.5-5.5,5.5c-3.2,0-5.6-2.4-5.6-5.6c0-3.1,2.3-5.4,5.4-5.4
		C444.6,437.6,447,440,447,443.2z M444.1,443.3c0.1-1.4-1.1-2.6-2.4-2.7c-1.5-0.1-2.8,1.1-2.8,2.6c0,1.4,1.1,2.6,2.5,2.6
		C442.7,445.8,444,444.6,444.1,443.3z"/>
	<path fill="#151D38" d="M740.6,343.3c-11.1-0.5-19.5-6.2-24.9-16.4c-0.1-0.3-0.3-0.6-0.3-0.9c-0.1-0.8,0.1-1.4,0.9-1.7
		c0.7-0.3,1.3,0,1.7,0.5c0.5,0.7,0.9,1.5,1.3,2.3c4.1,6.8,9.8,11.4,17.7,12.7c10.1,1.7,18.2-1.9,24.6-9.7c1.1-1.3,2-2.7,2.8-4.2
		c0.3-0.5,0.6-1,0.9-1.4c0.4-0.4,1-0.5,1.5-0.3c0.6,0.3,1,0.8,0.8,1.5c-0.1,0.5-0.3,0.9-0.5,1.3c-4.8,8.7-11.9,14.2-21.9,15.8
		C743.9,343.2,742.5,343.2,740.6,343.3z"/>
	<path fill="#151D38" d="M699.3,328.4c0,3.6-2.8,6.4-6.4,6.4c-3.5,0-6.4-3-6.3-6.5c0.1-3.4,2.9-6.2,6.3-6.3
		C696.4,322.1,699.3,324.9,699.3,328.4z"/>
	<path fill="#151D38" d="M796.7,328.6c0,3.6-2.8,6.4-6.3,6.4c-3.5,0-6.4-2.9-6.4-6.4c0-3.4,2.8-6.3,6.2-6.3
		C793.7,322.1,796.7,325,796.7,328.6z"/>
	<path fill="#151D38" d="M649.1,353.3c-3.8-0.1-7.6-3.4-8.5-7.3c-1.2-5.5,2.3-10.8,7.8-11.7c0.5-0.1,1.1-0.2,1.7-0.1
		c0.8,0.1,1.3,0.6,1.3,1.4c0,0.8-0.4,1.3-1.3,1.5c-0.6,0.1-1.1,0.2-1.6,0.3c-3.1,0.8-5.1,3.3-5.1,6.4c0,3.1,2.1,5.7,5.1,6.4
		c0.5,0.1,0.9,0.1,1.4,0.2c0.9,0.1,1.5,0.6,1.5,1.5c-0.1,1.1-0.8,1.5-1.8,1.4C649.4,353.3,649.2,353.3,649.1,353.3z"/>
	<path fill="#151D38" d="M842.6,344.1c0,5-3.7,9-8.6,9.5c-0.5,0.1-1,0.1-1.4-0.1c-0.6-0.3-1-0.8-1-1.5c0-0.6,0.4-1.1,1-1.2
		c0.5-0.1,1.1-0.2,1.6-0.3c3.2-0.7,5.4-3.3,5.4-6.4c0-3.2-2.3-6-5.5-6.6c-0.5-0.1-1.1-0.1-1.6-0.3c-0.6-0.3-1-0.8-0.9-1.5
		c0.1-0.7,0.5-1.1,1.3-1.2c2-0.2,3.8,0.4,5.4,1.5C841.2,337.9,842.6,340.6,842.6,344.1z"/>
	<path fill="#151D38" d="M742.5,329.2c-0.8,0-1.2-0.3-1.6-0.5c-2-1.3-4-2.7-5.9-4.1c-1.7-1.3-1.7-2.4,0.2-3.4c2-1.1,4.1-2.1,6.2-3.2
		c0.3-0.1,0.6-0.3,0.9-0.3c0.8-0.2,1.5,0,1.8,0.8c0.3,0.8,0.1,1.4-0.6,1.9c-1.1,0.6-2.2,1.2-3.4,1.8c-1.9,1-1.9,1-0.1,2.3
		c1,0.7,2.1,1.4,3.1,2.2c0.6,0.4,0.6,1.1,0.4,1.7C743.4,329,742.9,329.2,742.5,329.2z"/>
	<path fill="#151D38" d="M741.7,353.7c-3.1-0.2-5.6-1.4-7.5-3.8c-0.3-0.4-0.7-0.9-0.7-1.5c0-0.6,0.2-1.1,0.7-1.4
		c0.5-0.3,1.1-0.3,1.5,0.1c0.5,0.4,0.8,1,1.2,1.4c2.6,2.9,6.7,2.9,9.2,0c0.3-0.4,0.6-0.8,0.9-1.1c0.6-0.6,1.2-0.8,1.9-0.3
		c0.8,0.5,0.9,1.3,0.4,2.1c-0.9,1.6-2.2,2.7-3.8,3.6C744.5,353.4,743,353.6,741.7,353.7z"/>
	<path fill="#151D38" d="M677.5,324.3c0.1-5.3,4.5-10.2,9.8-10.8c0.3,0,0.6,0,1,0c0.8,0,1.4,0.5,1.5,1.3c0.1,0.8-0.3,1.4-1.1,1.6
		c-0.5,0.1-0.9,0.2-1.4,0.3c-3.8,0.9-6.1,3.5-6.6,7.3c0,0.2,0,0.5-0.1,0.7c-0.2,1.5-0.7,2.2-1.7,2.1
		C678,326.6,677.5,325.8,677.5,324.3z"/>
	<path fill="#151D38" d="M805.4,324.6c0,0.2,0,0.6-0.1,1c-0.1,0.8-0.6,1.3-1.5,1.3c-0.9,0-1.3-0.5-1.4-1.3c-0.1-0.4,0-0.8-0.1-1.2
		c-0.3-3.9-2.8-6.8-6.7-7.6c-1.9-0.4-2.6-1-2.3-2c0.3-1,1.1-1.3,3.1-0.9C801.5,314.8,805.3,319.3,805.4,324.6z"/>
	<path fill="#151D38" d="M741.2,539.1c-13.1,0-23.3-11-23-23.5c0.2-12.8,10.5-23,23.4-22.9c12.9,0,23.2,10.5,23,23.5
		C764.4,528.9,754,539.1,741.2,539.1z"/>
	<path fill="#B2ACBF" d="M761.5,516c0.1-11.2-8.8-20.2-19.9-20.3c-11.3-0.1-20.4,8.8-20.5,20c-0.1,11.1,9.1,20.4,20.2,20.4
		C752.3,536.1,761.5,527,761.5,516z"/>
	<path fill="#151D38" d="M864.1,397.1c-0.3,0-1.1-0.1-1.9-0.3c-0.7-0.2-1-0.8-0.9-1.5c0.1-0.7,0.5-1.2,1.2-1.2c0.6,0,1.1,0,1.7,0
		c4,0,7-2.1,8.4-5.9c0.2-0.4,0.2-0.9,0.5-1.3c0.4-0.6,0.9-0.9,1.6-0.7c0.7,0.2,1.1,0.7,1.1,1.4c0,0.5-0.2,1.1-0.3,1.6
		C873.9,394,869.6,397.1,864.1,397.1z"/>
	<path fill="#151D38" d="M741.4,532.4c-4.7,0.1-8-3.6-8.3-8.2c-0.1-1,0.1-1.8,1.2-2c0.9-0.2,1.5,0.4,1.7,1.8
		c0.2,0.9,0.3,1.9,0.8,2.7c1,1.8,3,3,5,2.7c2.3-0.3,3.7-1.7,4.4-3.9c0.6-2,0.3-3.8-1.3-5.2c-1.1-1-2.4-1.6-3.7-2.2
		c-1.5-0.7-3-1.4-4.4-2.5c-3.8-2.8-4.9-8.1-2.6-12.3c1.8-3.3,5.6-4.9,9.2-3.9c3.5,1,6.1,4.4,6,8c0,1-0.2,1.8-1.3,1.9
		c-1.1,0.1-1.6-0.6-1.6-1.6c0-0.9-0.3-1.7-0.6-2.5c-0.9-1.9-2.4-2.9-4.5-3c-2-0.1-3.9,1.2-4.7,3.1c-1.3,2.9-0.5,6,2.1,7.9
		c1.2,0.9,2.6,1.6,4,2.2c1.2,0.6,2.4,1.2,3.5,2c3,2.2,4,5.5,2.8,9.2C747.9,530.2,745.1,532.4,741.4,532.4z"/>
</g>
</svg>
